<svg width="15" height="15" viewBox="0 0 15 15" fill="none" xmlns="http://www.w3.org/2000/svg">
<g clip-path="url(#clip0_260_12)">
<path d="M7.41445 0.658002C7.34414 0.886621 7.22578 1.27909 7.14844 1.53057C7.07227 1.78205 6.87539 2.43108 6.71133 2.97214C6.54609 3.51321 6.28125 4.38704 6.12188 4.9116L5.83125 5.86799H3.06797C1.54805 5.86799 0.304688 5.8718 0.304688 5.87688C0.304688 5.88323 0.503906 6.042 0.747656 6.23124C0.990234 6.42049 1.98633 7.19399 2.95898 7.9497C3.93281 8.70669 4.73789 9.33539 4.74961 9.34682C4.77305 9.37096 4.81406 9.22743 4.25742 11.0564C4.03828 11.7804 3.8543 12.3862 3.52148 13.4823C3.35625 14.0272 3.18633 14.586 3.14414 14.7245C3.10195 14.8629 3.07031 14.9798 3.07383 14.9836C3.08203 14.9912 2.79727 15.2122 5.31445 13.2537C6.50039 12.3316 7.48828 11.5632 7.5082 11.5479L7.54688 11.5187L8.43984 12.2147C11.3074 14.4476 12.0176 14.9975 12.0211 14.9937C12.0234 14.9912 11.9672 14.7994 11.8969 14.5657C11.8254 14.3333 11.6438 13.7338 11.4914 13.2346C10.8926 11.2583 10.657 10.481 10.541 10.0975C10.3711 9.53861 10.3242 9.38239 10.3242 9.36715C10.3242 9.35953 11.3262 8.57587 12.5508 7.62328C13.7754 6.6707 14.7773 5.88577 14.7773 5.87942C14.7773 5.87307 13.7121 5.86672 12.0152 5.86545L9.2543 5.86164L9.06211 5.22659C8.95664 4.87731 8.74336 4.17748 8.58984 3.6707C8.43633 3.16393 8.14102 2.18975 7.93359 1.50517C7.72617 0.820576 7.55273 0.256646 7.54805 0.251566C7.54336 0.245215 7.48359 0.428112 7.41445 0.658002Z" fill="#95877A"/>
</g>
<defs>
<clipPath id="clip0_260_12">
<rect width="15" height="15" fill="white"/>
</clipPath>
</defs>
</svg>
